<?xml version="1.0" encoding="UTF-8"?>
<svg id="SVGDoc" width="131" height="137" xmlns="http://www.w3.org/2000/svg" version="1.1" xmlns:xlink="http://www.w3.org/1999/xlink" xmlns:avocode="https://avocode.com/" viewBox="0 0 131 137"><defs><clipPath id="ClipPath1016"><path d="M90.64471,94.22792l-0.85517,0.11341l0.86023,0.9884l-1.92797,1.66562l-14.30823,-16.43983c-3.8082,2.44696 -8.41494,3.7301 -13.28285,3.38501c-11.95206,-0.8473 -20.95252,-11.18834 -20.10311,-23.09829c0.84941,-11.90995 11.22701,-20.87746 23.17907,-20.03016c11.95201,0.84652 20.95252,11.18834 20.10311,23.09751c-0.41448,5.81156 -3.09765,10.9227 -7.12541,14.53477z" fill="#ffffff"></path></clipPath></defs><desc>Generated with Avocode.</desc><g><g opacity="0.87"><title>поиск</title><path d="M90.64471,94.22792l-0.85517,0.11341l0.86023,0.9884l-1.92797,1.66562l-14.30823,-16.43983c-3.8082,2.44696 -8.41494,3.7301 -13.28285,3.38501c-11.95206,-0.8473 -20.95252,-11.18834 -20.10311,-23.09829c0.84941,-11.90995 11.22701,-20.87746 23.17907,-20.03016c11.95201,0.84652 20.95252,11.18834 20.10311,23.09751c-0.41448,5.81156 -3.09765,10.9227 -7.12541,14.53477z" fill-opacity="0" fill="#ffffff" stroke-dashoffset="0" stroke-dasharray="" stroke-linejoin="miter" stroke-linecap="butt" stroke-opacity="1" stroke="#34a853" stroke-miterlimit="20" stroke-width="4" clip-path="url(&quot;#ClipPath1016&quot;)"></path></g></g></svg>